<svg width="160" height="160" viewBox="0 0 160 160" fill="none" xmlns="http://www.w3.org/2000/svg">
<circle cx="80" cy="80" r="80" fill="#F0F3FC"/>
<mask id="mask0_255_3368" style="mask-type:alpha" maskUnits="userSpaceOnUse" x="0" y="0" width="160" height="160">
<circle cx="80" cy="80" r="80" fill="#EEF5FF"/>
</mask>
<g mask="url(#mask0_255_3368)">
<path opacity="0.3" d="M80.0003 97.2547C66.139 97.2547 54.9022 86.0179 54.9022 72.1566C54.9022 58.2954 66.139 47.0586 80.0003 47.0586C93.8615 47.0586 105.098 58.2954 105.098 72.1566C105.098 86.0179 93.8615 97.2547 80.0003 97.2547Z" fill="#B9C5E0"/>
<path d="M23.5333 154.975C25.9653 125.029 50.2706 109.804 79.8952 109.804C109.937 109.804 134.619 124.192 136.457 154.98C136.531 156.207 136.457 160 131.744 160C108.493 160 73.9431 160 28.0939 160C26.5203 160 23.4008 156.606 23.5333 154.975Z" fill="#B9C5E0"/>
</g>
</svg>
